<?xml version="1.0" encoding="UTF-8"?>
<svg width="470px" height="156px" viewBox="0 0 470 156" version="1.1" xmlns="http://www.w3.org/2000/svg" xmlns:xlink="http://www.w3.org/1999/xlink">
    <title>logo</title>
    <g id="Page-1" stroke="none" stroke-width="1" fill="none" fill-rule="evenodd">
        <g id="logo" fill="#FFFFFF" fill-rule="nonzero">
            <path d="M453.889,20.734 L450.525,20.734 L450.525,30.708 L447.597,30.708 L447.597,20.734 L444.236,20.734 L444.236,18.35 L453.889,18.35 L453.889,20.734 Z M469.087,30.708 L466.331,30.708 L466.331,21.943 L466.277,21.943 L463.236,30.708 L461.258,30.708 L458.213,21.943 L458.16,21.943 L458.16,30.708 L455.403,30.708 L455.403,18.35 L459.303,18.35 L462.263,26.472 L465.222,18.35 L469.087,18.35 L469.087,30.708 L469.087,30.708 Z" id="Fill-1"></path>
            <path d="M393.287,35.505 C411.282,35.505 422.91,47.73 422.91,66.652 C422.91,85.574 411.282,97.8 393.287,97.8 C375.205,97.8 363.521,85.574 363.521,66.652 C363.521,47.73 375.205,35.505 393.287,35.505 Z M270.625,97.8 C252.543,97.8 240.86,85.574 240.86,66.652 C240.86,47.73 252.543,35.505 270.625,35.505 C288.621,35.505 300.249,47.73 300.249,66.652 C300.249,85.574 288.621,97.8 270.625,97.8 Z M169.22,97.8 C151.138,97.8 139.455,85.574 139.455,66.652 C139.455,47.73 151.138,35.505 169.22,35.505 C187.215,35.505 198.843,47.73 198.843,66.652 C198.843,85.574 187.215,97.8 169.22,97.8 Z M320.905,0.266 L320.905,47.992 C314.735,29.041 298.546,13.669 270.625,13.669 C242.049,13.669 225.756,29.769 219.923,49.331 C214.09,29.769 197.797,13.669 169.22,13.669 C132.479,13.669 116.034,40.28 116.034,66.652 C116.034,76.492 118.326,86.364 123.106,94.876 C119.843,96.659 115.635,97.545 110.456,97.545 C96.283,97.545 89.394,90.86 89.394,77.11 L89.394,54.445 L114.737,23.62 L89.499,23.62 L89.499,0.266 L66.393,28.732 L66.393,78.252 C66.393,78.878 66.449,79.469 66.469,80.083 C66.459,79.822 66.426,79.582 66.42,79.319 C66.731,92.28 58.217,98.151 44.359,98.151 C30.187,98.151 23.298,91.465 23.298,77.715 L23.001,23.631 L0,23.631 L0.297,78.858 C0.297,104.251 16.769,119.413 44.359,119.413 C58.214,119.413 70.455,115.044 78.041,108.015 C85.609,115.002 96.636,118.808 110.456,118.808 C121.834,118.808 131.274,116.182 138.492,111.366 C146.464,116.519 156.654,119.635 169.22,119.635 C195.494,119.635 211.383,106.024 218.308,88.628 L218.308,127.357 L240.016,156 L240.016,109.231 C247.915,114.195 258.315,119.635 270.625,119.635 C298.546,119.635 314.735,104.263 320.905,85.312 L320.905,119.455 L342.992,119.455 L342.992,85.261 C349.149,104.235 365.341,119.635 393.287,119.635 C405.974,119.635 416.239,116.459 424.245,111.218 L424.245,119.58 L446.233,119.58 L446.473,70.654 C446.56,69.304 446.473,68.004 446.473,66.652 C446.473,40.28 430.029,13.669 393.287,13.669 C365.341,13.669 349.149,29.068 342.992,48.043 L342.992,29.235 L320.905,0.266 L320.905,0.266 Z" id="Fill-3"></path>
        </g>
    </g>
</svg>